<?xml version="1.0" standalone="no"?>
<!DOCTYPE svg PUBLIC "-//W3C//DTD SVG 20010904//EN"
 "http://www.w3.org/TR/2001/REC-SVG-20010904/DTD/svg10.dtd">
<svg version="1.0" xmlns="http://www.w3.org/2000/svg"
 width="876.000000pt" height="876.000000pt" viewBox="0 0 876.000000 876.000000"
 preserveAspectRatio="xMidYMid meet">
<metadata>
Created by potrace 1.11, written by Peter Selinger 2001-2013
</metadata>
<g transform="translate(0.000000,876.000000) scale(0.100000,-0.100000)"
fill="#000000" stroke="none">
<path d="M954 6655 c-1 -5 -2 -750 -1 -1655 l2 -1645 1203 0 1202 0 0 -587 0
-588 1829 0 1829 0 3 22 c3 19 3 4441 0 4458 -2 10 -6063 5 -6067 -5z m5997
-75 c1 -19 1 -4254 0 -4297 l-1 -33 -1760 0 -1760 0 0 588 0 587 -1187 0
c-654 0 -1195 1 -1204 3 -14 3 -15 150 -14 1580 1 867 2 1579 3 1582 1 3 1334
5 2962 5 2624 0 2960 -2 2961 -15z"/>
<path d="M1857 5825 c-2 -9 -1 -1706 2 -1746 1 -15 52 -16 566 -16 328 0 568
4 571 9 5 7 8 312 5 401 -1 16 -21 17 -338 15 l-338 -3 2 673 c1 503 -2 672
-10 673 -65 7 -457 2 -460 -6z"/>
<path d="M3767 5823 c-4 -8 -76 -261 -82 -293 -2 -8 -33 -123 -70 -255 -136
-494 -323 -1181 -327 -1200 -3 -20 3 -20 238 -20 l242 -1 16 61 c9 33 26 92
37 130 11 39 26 90 33 115 8 25 46 163 87 308 40 144 77 262 81 262 4 0 12
-19 18 -42 40 -148 232 -823 236 -828 4 -4 484 -9 484 -5 0 0 -23 84 -51 185
-27 102 -63 232 -78 290 -77 285 -323 1182 -339 1235 l-19 60 -251 3 c-138 1
-253 -1 -255 -5z"/>
<path d="M5075 5328 c-1 -334 3 -505 10 -510 6 -5 6 -8 0 -8 -7 0 -10 -130
-10 -376 l0 -377 378 1 c208 1 386 4 397 7 10 3 28 8 41 10 44 9 148 64 189
101 58 52 123 147 150 219 17 46 24 87 27 172 6 175 -25 278 -110 363 l-35 35
38 42 c58 66 91 144 92 217 2 271 -129 488 -337 561 -104 37 -182 43 -510 44
l-320 1 0 -502z m628 135 c78 -46 97 -200 35 -284 -30 -40 -95 -65 -159 -60
-14 1 -16 22 -16 179 0 98 4 180 9 183 17 11 100 0 131 -18z"/>
<path d="M4067 3922 c-9 -2 -17 -7 -18 -10 -1 -9 -1 -234 0 -249 1 -9 20 -13
61 -13 l60 0 0 -440 0 -440 155 0 c117 0 155 3 156 13 1 17 1 1098 0 1122 -1
19 -8 20 -199 20 -109 0 -206 -1 -215 -3z"/>
<path d="M4872 3915 c-4 -5 -7 -12 -7 -15 -1 -3 -5 -34 -9 -70 -5 -36 -10 -72
-11 -80 -2 -8 -5 -35 -9 -60 -15 -122 -18 -146 -21 -160 -1 -8 -6 -40 -10 -70
-3 -30 -8 -66 -10 -80 -2 -14 -6 -49 -10 -77 l-7 -53 44 16 c59 21 196 30 241
15 87 -29 120 -93 88 -166 -41 -93 -175 -105 -338 -30 -30 13 -55 20 -58 14
-4 -5 -4 -9 -2 -9 2 0 -4 -53 -13 -117 -10 -65 -15 -123 -13 -130 7 -17 138
-69 205 -82 88 -16 208 -7 275 19 98 39 183 116 227 206 51 104 54 238 7 339
-59 127 -167 197 -308 199 -24 0 -43 3 -43 7 0 3 5 31 11 62 l12 57 163 0 164
0 0 138 0 137 -281 0 c-176 0 -283 -4 -287 -10z"/>
<path d="M5696 3920 c-31 -6 -29 14 -26 -215 l0 -55 60 0 c50 0 60 -3 61 -17
0 -10 0 -208 0 -441 l0 -423 157 3 156 3 1 555 c1 305 -2 564 -5 574 -6 18
-18 20 -191 20 -102 1 -198 -1 -213 -4z"/>
</g>
</svg>
